<svg xmlns="http://www.w3.org/2000/svg" width="18.788" height="20.746" viewBox="0 0 18.788 20.746"><defs><style>.a{fill:#fff;}</style></defs><path class="a" d="M1773.091,100.608h11.14a2.328,2.328,0,0,0,2.294-2.352V93.393a.058.058,0,0,0,0-.025c0-.009,0-.019,0-.03s0-.017,0-.026a.241.241,0,0,1-.008-.028c0-.01,0-.018-.008-.026s0-.017-.008-.025a.3.3,0,0,1-.013-.031.145.145,0,0,0-.012-.022.224.224,0,0,1-.012-.025.114.114,0,0,1-.012-.021c0-.008-.013-.016-.017-.025a.081.081,0,0,0-.017-.021c0-.009-.012-.013-.017-.021s-.012-.014-.017-.023a.049.049,0,0,0-.017-.016l-.021-.021c-.008,0-.012-.014-.021-.018a.186.186,0,0,0-.025-.016.243.243,0,0,0-.021-.013.071.071,0,0,1-.025-.018l-.025-.012-.025-.012a.185.185,0,0,1-.025-.014c-.008,0-.017,0-.025-.008a.073.073,0,0,0-.029-.008.194.194,0,0,1-.021,0,.076.076,0,0,0-.033-.005s-.008,0-.016,0l-14.119-2V88.853a.277.277,0,0,0,0-.06.033.033,0,0,0,0-.016c0-.013,0-.025,0-.037s0-.022-.008-.035,0-.013,0-.022-.008-.024-.012-.039,0-.011,0-.016a.139.139,0,0,0-.017-.034c0-.005,0-.013-.008-.016a.081.081,0,0,0-.017-.026.159.159,0,0,0-.012-.021c0-.008-.008-.013-.012-.022s-.013-.017-.017-.025l-.013-.013c-.008-.008-.017-.017-.025-.026l-.012-.013a.216.216,0,0,0-.029-.024.083.083,0,0,0-.017-.014c-.008-.009-.017-.013-.025-.022l-.033-.021s-.008,0-.012-.009l-.054-.025-3.062-1.321a.554.554,0,0,0-.736.307.58.58,0,0,0,.3.754l2.717,1.177v12.612a2.336,2.336,0,0,0,2,2.332,2.376,2.376,0,0,0-.324,1.195,2.265,2.265,0,1,0,4.529,0,2.328,2.328,0,0,0-.312-1.173h5.045a2.337,2.337,0,0,0-.312,1.173,2.265,2.265,0,1,0,2.265-2.326h-10.6a1.188,1.188,0,0,1-1.172-1.2v-1.56A2.279,2.279,0,0,0,1773.091,100.608Zm2.792,4.758a1.143,1.143,0,1,1-1.143-1.172A1.159,1.159,0,0,1,1775.883,105.366Zm8.95,0a1.143,1.143,0,1,1-1.143-1.172A1.159,1.159,0,0,1,1784.834,105.366Zm-.6-5.909h-11.14a1.188,1.188,0,0,1-1.172-1.2V92.034L1785.4,93.94v4.312A1.189,1.189,0,0,1,1784.231,99.457Z" transform="translate(-1767.736 -86.948)"/></svg>