<svg xmlns="http://www.w3.org/2000/svg" width="34.752" height="57" viewBox="0 0 34.752 57"><defs><style>.a{fill:#fff;opacity:0.8;}</style></defs><path class="a" d="M1677.259,2324.048v-4.871c-2.136-.426-3.724-1.917-3.724-3.679a2.669,2.669,0,0,1,.093-.688c-4.284-1.042-7.511-3.828-8.284-7.292l-.447-2.052-3.4-2.6a.779.779,0,0,1,0-1.329,1.468,1.468,0,0,1,1.738,0l3.4,2.6,2.681.341c4.187.548,7.616,2.7,9.184,5.62,1.568-2.917,5-5.072,9.185-5.62l2.68-.341,3.4-2.6a1.465,1.465,0,0,1,1.737,0,.78.78,0,0,1,0,1.33l-3.4,2.6-.447,2.052c-.771,3.461-3.993,6.245-8.272,7.289a2.466,2.466,0,0,1,.081.6c0,1.842-1.589,3.346-3.723,3.773v4.872c0,.57-.5.95-1.241.95S1677.259,2324.618,1677.259,2324.048Zm-1.241-8.55a2.571,2.571,0,0,0,4.964,0v-.285l-2.234.285h-.5l-2.234-.285Zm12.038-9.024c-3.972.474-7.2,2.944-7.818,5.984l-.244.932,1.237-.172.139-.018a.917.917,0,0,0,.11-.077,1.485,1.485,0,0,1,.455-.012c3.644-.666,6.531-3.02,7.115-5.879l.248-.949Zm-20.106.759c.621,3.04,3.848,5.511,7.819,5.986l1.237.172-.244-.932c-.62-3.04-3.847-5.51-7.819-5.984l-1.241-.191Zm10.55-2.184h-.248l-2.979-.38c-5.089-.665-9.06-3.705-9.929-7.6l-.447-2.052-3.4-2.6a.779.779,0,0,1,0-1.329,1.465,1.465,0,0,1,1.738,0l3.4,2.6,2.681.341c4.187.547,7.616,2.7,9.184,5.62,1.568-2.916,5-5.073,9.185-5.62l2.68-.341,3.4-2.6a1.465,1.465,0,0,1,1.738,0,.78.78,0,0,1,0,1.329l-3.4,2.6-.446,2.052c-.869,3.9-4.841,6.935-9.93,7.6l-2.978.38Zm9.556-9.025c-3.972.475-7.2,2.945-7.818,5.984l-.248.95,1.241-.189c3.972-.475,7.2-2.946,7.819-5.986l.248-.949Zm-20.106.76c.621,3.04,3.848,5.511,7.819,5.986l1.241.189-.248-.95c-.62-3.039-3.847-5.509-7.819-5.984l-1.241-.19Zm10.55-2.184h-.248l-2.979-.38c-5.089-.666-9.06-3.705-9.929-7.6l-.446-2.052-3.4-2.6a.78.78,0,0,1,0-1.33,1.468,1.468,0,0,1,1.738,0l3.4,2.6,2.681.342c4.188.546,7.616,2.7,9.184,5.619,1.569-2.917,5-5.073,9.185-5.619l2.681-.342,3.4-2.6a1.468,1.468,0,0,1,1.738,0,.781.781,0,0,1,0,1.33l-3.4,2.6-.446,2.052c-.869,3.9-4.841,6.934-9.929,7.6l-2.979.38Zm9.556-9.026c-3.972.476-7.2,2.946-7.818,5.986l-.248.95,1.241-.189c3.972-.476,7.2-2.946,7.819-5.986l.248-.949Zm-20.106.76c.621,3.04,3.848,5.51,7.819,5.986l1.241.189-.248-.95c-.62-3.04-3.847-5.51-7.819-5.986l-1.241-.189Zm9.557.285-1.738-1.9a7.565,7.565,0,0,1,0-10.735l1.49-1.628v-3.407c0-.57.5-.949,1.241-.949s1.241.38,1.241.949v3.5l1.49,1.629a7.565,7.565,0,0,1,0,10.734l-1.738,1.805a1.488,1.488,0,0,1-1.985,0Zm.248-11.5a5.939,5.939,0,0,0,0,8.457l.745.76.744-.76a5.939,5.939,0,0,0,0-8.457l-.744-.76Z" transform="translate(-1661.124 -2267.998)"/></svg>