<svg xmlns="http://www.w3.org/2000/svg" width="55" height="58" viewBox="0 0 55 58"><defs><style>.a{fill:#fff;opacity:0.8;}</style></defs><path class="a" d="M1184.238,2325a3.492,3.492,0,0,1-3.38-3.091l-1.761-11.72a.859.859,0,0,1,.667-.992.813.813,0,0,1,.923.716l.915,6.088h16.225a.867.867,0,0,1,0,1.73h-15.965l.586,3.9a1.85,1.85,0,0,0,1.789,1.637h19.217a1.849,1.849,0,0,0,1.789-1.637l.587-3.9h-4.469a.867.867,0,0,1,0-1.73h4.729l2.918-19.416a7.121,7.121,0,0,1-2.327-1.665,5.249,5.249,0,0,0-7.8,0,6.861,6.861,0,0,1-5.037,2.238,6.726,6.726,0,0,1-3.377-.913l-.024-.014a7.189,7.189,0,0,1-1.636-1.311,5.4,5.4,0,0,0-2.462-1.531.65.65,0,0,1-.089-.027,5.177,5.177,0,0,0-1.346-.176,5.29,5.29,0,0,0-3.9,1.734,7.134,7.134,0,0,1-2.328,1.665l1.383,9.206a.859.859,0,0,1-.667.991.7.7,0,0,1-.13.011.826.826,0,0,1-.795-.727l-3.148-20.954a3.587,3.587,0,0,1,.718-2.759,3.088,3.088,0,0,1,2.42-1.2h4.743l-1.362-6.258a1.761,1.761,0,0,0-1.691-1.441h-7.573a1.647,1.647,0,0,1-1.584-1.7v-2.187a1.648,1.648,0,0,1,1.584-1.7h7.574a7.036,7.036,0,0,1,6.758,5.759l1.638,7.528h9.5c.419-7.881,6.521-14.154,13.963-14.154,7.713,0,13.987,6.738,13.987,15.019a15.349,15.349,0,0,1-6.073,12.377,23.57,23.57,0,0,1,2.353,9.929,3.8,3.8,0,0,1-.989,2.712,3.289,3.289,0,0,1-2.4,1.065c-.042,0-.085,0-.128,0a19.381,19.381,0,0,1-9.454-2.658l-2.474,16.468a3.494,3.494,0,0,1-3.38,3.091Zm25.35-21.41a16.752,16.752,0,0,0,9.237,2.78,1.694,1.694,0,0,0,1.326-.556,1.968,1.968,0,0,0,.518-1.424,21.8,21.8,0,0,0-2.12-9.094,13.171,13.171,0,0,1-6.127,1.737l3.29,3.532a.911.911,0,0,1,0,1.224.768.768,0,0,1-1.139,0l-4.058-4.359Zm-18.046-8.7a5.243,5.243,0,0,0,6.2-1.191,6.782,6.782,0,0,1,10.075,0,5.583,5.583,0,0,0,1.454,1.119l1.5-9.979a1.769,1.769,0,0,0-.354-1.36,1.524,1.524,0,0,0-1.194-.593h-20.295Zm19.3.357c.39.039.781.062,1.171.062,6.824,0,12.376-5.961,12.376-13.289s-5.552-13.289-12.376-13.289c-6.553,0-11.931,5.5-12.348,12.424h2.092c.412-5.69,4.855-10.183,10.257-10.183a10.119,10.119,0,0,1,8.332,4.566.906.906,0,0,1-.179,1.208.77.77,0,0,1-1.125-.192,8.534,8.534,0,0,0-7.029-3.852,8.954,8.954,0,0,0-8.638,8.453h5.851a3.091,3.091,0,0,1,2.421,1.2,3.592,3.592,0,0,1,.718,2.758l-.932,6.2c.194.014.388.023.581.023,4.785,0,8.678-4.18,8.678-9.319a9.982,9.982,0,0,0-.313-2.49.875.875,0,0,1,.562-1.066.8.8,0,0,1,.991.6,11.849,11.849,0,0,1,.372,2.953c0,6.092-4.615,11.048-10.289,11.048-.279,0-.559-.012-.838-.037Zm-33.568-11.769a1.768,1.768,0,0,0-.355,1.359l1.5,9.98a5.6,5.6,0,0,0,1.454-1.119,6.839,6.839,0,0,1,5.038-2.241c.183,0,.365.009.546.023l-1.871-8.6h-5.118A1.521,1.521,0,0,0,1177.274,2283.476Zm-4.663-11.752h7.547a3.4,3.4,0,0,1,3.261,2.778l3.776,17.354a6.992,6.992,0,0,1,2.347,1.437l-4.194-19.275a5.4,5.4,0,0,0-5.189-4.421h-7.547Zm41.861,7.655a.911.911,0,0,1,0-1.224l.818-.878a.769.769,0,0,1,1.139,0,.912.912,0,0,1,0,1.223l-.818.879a.768.768,0,0,1-1.139,0Zm-3.264-.717v-2.485a.808.808,0,1,1,1.612,0v2.485a.808.808,0,1,1-1.612,0Z" transform="translate(-1171 -2266.998)"/></svg>