<svg xmlns="http://www.w3.org/2000/svg" width="54" height="59.712" viewBox="0 0 54 59.712"><defs><style>.a{fill:#fff;opacity:0.8;}</style></defs><path class="a" d="M716.008,2312.135A13.981,13.981,0,0,1,690,2304.961c0-8.283,5.832-15.024,13-15.024h2a12.305,12.305,0,0,1,9.763,5.137c6.561-2.519,13.139-10.379,13.6-19.187-.229.015-.458.025-.689.025a11.606,11.606,0,0,1-6.213-1.839,9.5,9.5,0,0,1-4.447-6.526l-.152-.989.988-.153a11.438,11.438,0,0,1,7.81,1.719,9.967,9.967,0,0,1,3.768,4.277c3.637-3.506,9.425-4.267,13.254-1.456l.806.591-.59.808a11.442,11.442,0,0,1-6.737,4.317,10.918,10.918,0,0,1-2.334.257,9.609,9.609,0,0,1-2.118-.258c5.008,7.97,7.411,14.635,5.217,21.955A15.435,15.435,0,0,1,744,2311.973a14,14,0,0,1-27.993.162Zm1.993-.162a12,12,0,1,0,24,0,13.534,13.534,0,0,0-5.75-11.439,26.052,26.052,0,0,1-1.375,2.911,1,1,0,0,1-.876.515,1,1,0,0,1-.873-1.49,25.2,25.2,0,0,0,1.363-2.837,9.434,9.434,0,0,0-3.488-.681h-2C722.935,2298.953,718,2304.794,718,2311.973Zm-26-7.012a12,12,0,1,0,24,0,14.611,14.611,0,0,0-2.04-7.526,12.986,12.986,0,0,1-3.389.486,1,1,0,0,1,0-2,10.584,10.584,0,0,0,2.137-.232,10.166,10.166,0,0,0-7.708-3.748h-2C696.935,2291.941,692,2297.783,692,2304.961Zm23.884-8.192a16.558,16.558,0,0,1,2.076,7.306c2.295-4.27,6.379-7.127,11.039-7.127h2a11.356,11.356,0,0,1,4.129.79c1.658-5.791.158-11.524-4.961-19.768C728.919,2286.671,722.536,2294.037,715.884,2296.77Zm14.623-22.629c3.1,1.554,7.437.641,10.074-2.14a7.459,7.459,0,0,0-3.345-.753A9.446,9.446,0,0,0,730.508,2274.141Zm-11.271-5.849a7.8,7.8,0,0,0,3.3,4.1,9.469,9.469,0,0,0,5.341,1.52,7.79,7.79,0,0,0-3.3-4.1,9.526,9.526,0,0,0-5.1-1.524C719.4,2268.288,719.316,2268.29,719.237,2268.292Zm8.359,53.792a10.3,10.3,0,0,1-7.548-6.8,1,1,0,1,1,1.9-.619,8.392,8.392,0,0,0,6.081,5.46,1,1,0,0,1-.218,1.978A1.016,1.016,0,0,1,727.6,2322.084Zm-25.859-7.357a10.292,10.292,0,0,1-7.548-6.8,1,1,0,1,1,1.9-.617,8.392,8.392,0,0,0,6.082,5.458,1,1,0,1,1-.436,1.955ZM730,2301.957a1,1,0,1,1,2,0,4.008,4.008,0,0,0,4,4.007,1,1,0,0,1,0,2A6.011,6.011,0,0,1,730,2301.957Zm-35.271,1.582a1,1,0,0,1-.784-1.18,11.669,11.669,0,0,1,1.476-3.792,1,1,0,1,1,1.708,1.044,9.713,9.713,0,0,0-1.222,3.144,1,1,0,0,1-.979.8A1.083,1.083,0,0,1,694.729,2303.539ZM706,2294.946a1,1,0,1,1,2,0,4.008,4.008,0,0,0,4,4.007,1,1,0,0,1,0,2A6.011,6.011,0,0,1,706,2294.946Z" transform="translate(-690 -2266.285)"/></svg>