<svg xmlns="http://www.w3.org/2000/svg" width="51.544" height="57.685" viewBox="0 0 51.544 57.685"><defs><style>.a{fill:#fff;opacity:0.8;}</style></defs><path class="a" d="M265.917,2287.406a9.479,9.479,0,0,0-5.783-8.93,7.654,7.654,0,0,0-6.559-6.372,5.186,5.186,0,0,0-.189-.99,5.269,5.269,0,0,0-8.078-2.853,5.728,5.728,0,0,0-8.821,3.918c-.1.021-.2.051-.3.075-.095-.228-.192-.452-.3-.67-1.469-2.9-4.063-4.583-6.467-4.2a4.968,4.968,0,0,0-3.652,2.935,5.394,5.394,0,0,0-4.082-.3,5.238,5.238,0,0,0-3.065,2.961,9.451,9.451,0,0,0-.029,6.779,6.414,6.414,0,0,0-2.418,3.267,10.178,10.178,0,0,0,.744,7.761c.141.283.295.564.463.84a6.438,6.438,0,0,0-2.6,3.359,8.881,8.881,0,0,0,.935,7.261,10.845,10.845,0,0,0,2.422,2.882,5.642,5.642,0,0,0,.708,4.167,6.912,6.912,0,0,0,5.2,3.354c3.3,6.185,7.4,8.84,13.712,11.5l.07.03a5.45,5.45,0,0,0,2.9.8,6.4,6.4,0,0,0,1.734-.248c.009,0,.018,0,.027,0l.011-.007a5.958,5.958,0,0,0,1.317-.551,4.033,4.033,0,0,0,2.017-4.948c-1.906-5.575-1.752-9.762.462-12.441,3.83-4.637,12.716-3.5,12.8-3.482l1.034.14.1-1.034a8.138,8.138,0,0,0-1.58-5.559c-.11-.127-.225-.248-.345-.363a9.179,9.179,0,0,0,1.582-.507A9.651,9.651,0,0,0,265.917,2287.406Zm-40.357,23.822-.281-.551-.62,0h-.026a4.879,4.879,0,0,1-4.051-2.39,3.509,3.509,0,0,1-.345-3.127l.306-.731-.641-.465a8.818,8.818,0,0,1-2.442-2.712,6.9,6.9,0,0,1-.775-5.615,4.385,4.385,0,0,1,2.533-2.714l1.191-.49-.767-1.031a9.979,9.979,0,0,1-.924-1.5,8.3,8.3,0,0,1-.645-6.218,4.309,4.309,0,0,1,2.2-2.583l.861-.413-.367-.878-.044-.095a7.684,7.684,0,0,1-.264-5.928,3.324,3.324,0,0,1,1.891-1.874,3.839,3.839,0,0,1,3.385.683l1.16.781.37-1.346a3.309,3.309,0,0,1,2.473-2.67c1.507-.255,3.293,1.04,4.348,3.12.084.166.163.337.235.511-.023.014-.042.03-.065.044a7.037,7.037,0,0,0-.6.4c-.116.084-.224.174-.334.265-.073.062-.145.125-.215.188a7.055,7.055,0,0,0-1.072,1.2l-.067.1a7.193,7.193,0,0,0-.479.819c-.035.07-.072.138-.1.208-.061.134-.118.27-.171.408s-.1.291-.151.439c-.038.123-.076.246-.108.372-.055.215-.1.435-.133.657-.012.081-.023.162-.033.244a6.933,6.933,0,0,0-.055.835c0,.184.008.366.022.553a8.059,8.059,0,0,0-5.932,11.277,6.182,6.182,0,0,0,1.792,9.781c-.005.536,0,1.058.021,1.57.006.168.019.33.027.5.017.341.037.681.065,1.012.016.189.038.375.057.561.031.3.065.6.107.89.026.19.056.38.086.567q.068.421.149.833c.036.186.074.369.115.553.06.274.127.545.2.813.044.174.089.347.136.519.079.281.166.559.255.835.048.15.094.3.146.455.114.331.238.659.367.986.035.089.066.18.1.27q.252.62.54,1.229c.054.115.115.229.171.344.142.29.286.58.439.868.083.154.171.309.257.464.138.247.277.5.423.741.1.167.2.334.306.5.144.234.291.468.443.7.112.172.226.344.342.517q.234.346.48.695c.121.173.242.345.368.518.172.236.35.475.529.713.128.17.253.338.384.509.195.254.4.51.6.767.125.157.245.313.373.471l.033.042A19.654,19.654,0,0,1,225.559,2311.228Zm29.085-16.733-.268-.044-.973.224-.107,2.213,1,.053a3.769,3.769,0,0,1,2.816,1.22,5.345,5.345,0,0,1,1.1,3.059c-2.766-.179-9.8-.152-13.48,4.3-2.691,3.251-2.965,8.085-.818,14.366a2.092,2.092,0,0,1-1.128,2.572c-.044.027-.095.044-.14.067A62.92,62.92,0,0,1,238.8,2309.6c0-.024-.006-.047-.011-.069a39.124,39.124,0,0,1-.594-8.21c1.408-2.392,5.546-2.488,5.588-2.489a1,1,0,0,0-.014-2h-.012a11.513,11.513,0,0,0-5.3,1.486,25.671,25.671,0,0,1,1.311-5.3,1.012,1.012,0,0,0,.146-.228.985.985,0,0,0,.087-.395,21.718,21.718,0,0,1,2.492-4.591,14.632,14.632,0,0,1,7.986.5,1,1,0,1,0,.806-1.836,15.741,15.741,0,0,0-6.9-.95,16,16,0,0,1,3.913-3.072c1.461-.7,3.6.2,4.3.611a.992.992,0,0,0,.509.138,1,1,0,0,0,.511-1.865,8.586,8.586,0,0,0-4.691-1.109,5.63,5.63,0,0,1,.862-1.848,1,1,0,0,0-1.6-1.215,7.065,7.065,0,0,0-1.38,3.833,21.726,21.726,0,0,0-7.887,9.039c-.143.292-.281.607-.417.923a5.724,5.724,0,0,1-2.266-5.355,1.006,1.006,0,0,0-1.987-.312,7.613,7.613,0,0,0,3.514,7.58,29.515,29.515,0,0,0-1.49,7.9.99.99,0,0,0-.016.288,40.087,40.087,0,0,0,.346,7.2,5.024,5.024,0,0,1-1.9-1.792,1.005,1.005,0,0,0-1.778.939,7.151,7.151,0,0,0,4.039,3.176,64.279,64.279,0,0,0,3.713,12.417,3.471,3.471,0,0,1-1.8-.5v0c-.109-.07-.2-.136-.288-.2a2.681,2.681,0,0,1-.317-.284l-.016-.014-.422-.479c-6.3-7.223-9.448-12.505-9.2-21.34l.021-.73-.692-.243A4.182,4.182,0,0,1,226.7,2292l.66-.539-.428-.737a6.063,6.063,0,0,1,5.024-9.109l1.222-.051-.286-1.185a5.1,5.1,0,0,1-.148-1.2,5.046,5.046,0,0,1,.088-.9c.013-.076.034-.148.05-.22a5.075,5.075,0,0,1,.2-.673c.022-.06.045-.119.07-.178a5.116,5.116,0,0,1,.383-.743c.006-.009.01-.018.016-.028a5.228,5.228,0,0,1,1.213-1.314c.065-.051.135-.094.2-.14a4.972,4.972,0,0,1,.5-.308c.109-.058.217-.114.331-.165a5.072,5.072,0,0,1,1.706-.446l.929-.07v-.932l0-.079a3.721,3.721,0,0,1,6.228-2.694l.7.634.676-.665a3.261,3.261,0,0,1,2.693-.916,3.294,3.294,0,0,1,2.725,2.336,3.085,3.085,0,0,1,.109,1.244l-.1,1.118h1.131a5.631,5.631,0,0,1,5.608,5.22l.046.658.625.219a7.485,7.485,0,0,1,5.036,7.229,7.642,7.642,0,0,1-4.8,6.779A6.99,6.99,0,0,1,254.644,2294.494Z" transform="translate(-214.374 -2267.312)"/></svg>