<svg xmlns="http://www.w3.org/2000/svg" width="45" height="46" viewBox="0 0 45 46"><defs><style>.a{fill:rgba(255,255,255,0.32);stroke:#fff;opacity:0;}.b{fill:#fff;}.c{stroke:none;}.d{fill:none;}</style></defs><g class="a"><rect class="c" width="45" height="46" rx="22.5"/><rect class="d" x="0.5" y="0.5" width="44" height="45" rx="22"/></g><path class="b" d="M1662.4,106.634l-5.008-5.061a8.767,8.767,0,1,0-6.63,3.054,8.7,8.7,0,0,0,5.761-2.177l5.008,5.06a.617.617,0,0,0,.434.185.6.6,0,0,0,.434-.185A.627.627,0,0,0,1662.4,106.634Zm-19.195-10.883a7.553,7.553,0,1,1,7.553,7.636A7.6,7.6,0,0,1,1643.207,95.751Z" transform="translate(-1630 -74)"/></svg>